# xmcd
#
# Track frame offsets: 
#        182
#        15627
#        28505
#        39567
#        57865
#        77082
#        91360
#        106745
#        119952
#
# Disc length: 1758 seconds
#
# Revision: 3
# Processed by: cddbd v1.5.2PL0 Copyright (c) Steve Scherf et al.
# Submitted via: ExactAudioCopyFreeDBPlugin 1.0
#
DISCID=6c06dc09
DTITLE=Various Artist - Country Hits Of The 80s
DYEAR=1997
DGENRE=Country
TTITLE0=Statler Brothers - Elizabeth
TTITLE1=Johnny Cash - That Old Wheel
TTITLE2=Tom T. Hall - P.S. I Love You
TTITLE3=Everly Brothers - Born Yesterday
TTITLE4=Mac Davis - Texas In My Rear View Mirror
TTITLE5=Donna Fargo - Me And Yor
TTITLE6=George Burns - I Wish I Was Eighteen Again
TTITLE7=Kendalls - Thank God For The Radio
TTITLE8=Statler Brothers - You'll Be Back (Every Night In  My Dreams)
EXTD=
EXTT0=
EXTT1=
EXTT2=
EXTT3=
EXTT4=
EXTT5=
EXTT6=
EXTT7=
EXTT8=
PLAYORDER=
